<svg width="20" height="20" viewBox="0 0 20 20" fill="none" xmlns="http://www.w3.org/2000/svg">
<path fill-rule="evenodd" clip-rule="evenodd" d="M9.09091 0.909091C9.09091 0.407014 9.49792 0 10 0H18.9685C19.4706 0 19.8776 0.407014 19.8776 0.909091V7.04373C19.8776 7.54581 19.4706 7.95283 18.9685 7.95283H10C9.49792 7.95283 9.09091 7.54581 9.09091 7.04373V0.909091ZM10.9091 1.81818V6.13464H18.0595V1.81818H10.9091ZM0.266267 9.35717C0.436754 9.18669 0.667985 9.09091 0.909091 9.09091H7.04373C7.54581 9.09091 7.95283 9.49792 7.95283 10C7.95283 10.5429 8.16851 11.0637 8.55243 11.4476C8.93635 11.8315 9.45706 12.0472 10 12.0472C10.5429 12.0472 11.0637 11.8315 11.4476 11.4476C11.8315 11.0637 12.0472 10.5429 12.0472 10C12.0472 9.49792 12.4542 9.09091 12.9563 9.09091H19.0909C19.593 9.09091 20 9.49792 20 10C20 12.6522 18.9464 15.1957 17.0711 17.0711C15.1957 18.9464 12.6522 20 10 20C7.34784 20 4.8043 18.9464 2.92893 17.0711C1.05357 15.1957 0 12.6522 0 10C0 9.75889 0.0957789 9.52766 0.266267 9.35717ZM1.86882 10.9091C2.07398 12.7446 2.89601 14.4668 4.21458 15.7854C5.74897 17.3198 7.83005 18.1818 10 18.1818C12.17 18.1818 14.251 17.3198 15.7854 15.7854C17.104 14.4668 17.926 12.7446 18.1312 10.9091H13.7569C13.5912 11.594 13.2398 12.2267 12.7332 12.7332C12.0083 13.4581 11.0252 13.8654 10 13.8654C8.97484 13.8654 7.99167 13.4581 7.26678 12.7332C6.76025 12.2267 6.40882 11.594 6.24306 10.9091H1.86882Z" fill="#0245A3"/>
<path fill-rule="evenodd" clip-rule="evenodd" d="M3.97641 1.81818C2.78445 1.81818 1.81818 2.78445 1.81818 3.97641C1.81818 5.16837 2.78445 6.13464 3.97641 6.13464C5.16837 6.13464 6.13464 5.16837 6.13464 3.97641C6.13464 2.78445 5.16837 1.81818 3.97641 1.81818ZM0 3.97641C0 1.7803 1.7803 0 3.97641 0C6.17253 0 7.95283 1.7803 7.95283 3.97641C7.95283 6.17253 6.17253 7.95283 3.97641 7.95283C1.7803 7.95283 0 6.17253 0 3.97641Z" fill="#0245A3"/>
</svg>
