<svg width="22" height="22" viewBox="0 0 22 22" fill="none" xmlns="http://www.w3.org/2000/svg">
<path fill-rule="evenodd" clip-rule="evenodd" d="M2.61724 3.3538C4.87575 1.19806 7.87891 -0.00320389 11.0011 0.000251575L11 0.99982V0.000250919C11.0004 0.000250919 11.0007 0.000251575 11.0011 0.000251575C13.1763 0.000470264 15.3026 0.645594 17.1113 1.85408C18.9202 3.06278 20.3301 4.78074 21.1627 6.79073C21.9952 8.80072 22.2131 11.0125 21.7886 13.1462C21.3642 15.28 20.3165 17.24 18.7782 18.7784C17.2398 20.3168 15.2798 21.3644 13.146 21.7889C11.0122 22.2133 8.80047 21.9955 6.79048 21.1629C4.78049 20.3304 3.06253 18.9205 1.85383 17.1115C0.645139 15.3026 0 13.1758 0 11.0002C0 10.448 0.447715 10.0002 1 10.0002C1.55228 10.0002 2 10.448 2 11.0002C2 12.7803 2.52784 14.5203 3.51677 16.0004C4.50571 17.4804 5.91131 18.634 7.55585 19.3152C9.20038 19.9964 11.01 20.1746 12.7558 19.8273C14.5016 19.48 16.1053 18.6229 17.364 17.3642C18.6226 16.1055 19.4798 14.5019 19.8271 12.7561C20.1743 11.0102 19.9961 9.20063 19.3149 7.5561C18.6337 5.91156 17.4802 4.50596 16.0001 3.51702C14.5201 2.52809 12.78 2.00025 11 2.00025L10.9989 2.00025C8.39178 1.99736 5.88407 3.00045 3.99815 4.80055C3.59864 5.18188 2.96565 5.16714 2.58432 4.76763C2.20299 4.36812 2.21773 3.73513 2.61724 3.3538Z" fill="#0245A3"/>
<path fill-rule="evenodd" clip-rule="evenodd" d="M4.31946 0.0300941C4.85525 0.164043 5.18101 0.706977 5.04706 1.24277L4.52037 3.34955L6.62715 3.87625C7.16294 4.0102 7.48871 4.55313 7.35476 5.08893C7.22081 5.62472 6.67787 5.95048 6.14208 5.81653L3.06516 5.0473C2.52936 4.91335 2.2036 4.37042 2.33755 3.83462L3.10678 0.757701C3.24073 0.221906 3.78366 -0.103855 4.31946 0.0300941ZM11 4.61562C11.5523 4.61562 12 5.06334 12 5.61562V11.7695C12 12.1482 11.786 12.4945 11.4472 12.6639L7.44721 14.6639C6.95323 14.9109 6.35256 14.7107 6.10557 14.2167C5.85858 13.7227 6.05881 13.122 6.55278 12.875L10 11.1514V5.61562C10 5.06334 10.4477 4.61562 11 4.61562Z" fill="#0245A3"/>
</svg>
