<svg width="15" height="20" viewBox="0 0 15 20" fill="none" xmlns="http://www.w3.org/2000/svg">
<path fill-rule="evenodd" clip-rule="evenodd" d="M0 6.9342C0 3.05976 3.2894 0 7.2365 0C11.1836 0 14.473 3.05976 14.473 6.9342C14.473 9.09987 13.3115 11.7311 12.0823 13.9504C10.8259 16.2189 9.38097 18.2597 8.60681 19.3052C8.4496 19.5198 8.24416 19.6945 8.00702 19.8152C7.76834 19.9367 7.50431 20 7.2365 20C6.96869 20 6.70467 19.9367 6.46599 19.8152C6.22881 19.6945 6.02335 19.5197 5.86612 19.3051C5.09199 18.2592 3.64705 16.2177 2.39064 13.9489C1.16156 11.7295 0 9.09842 0 6.9342ZM7.2365 2.03527C4.31694 2.03527 2.03527 4.27795 2.03527 6.9342C2.03527 8.52722 2.94666 10.7518 4.17112 12.9629C5.23655 14.8868 6.45412 16.654 7.23656 17.732C8.01898 16.6545 9.23651 14.888 10.3019 12.9643C11.5263 10.7537 12.4377 8.52878 12.4377 6.9342C12.4377 4.27795 10.1561 2.03527 7.2365 2.03527Z" fill="#0245A3"/>
<path fill-rule="evenodd" clip-rule="evenodd" d="M7.23674 6.1816C6.6539 6.1816 6.18142 6.65408 6.18142 7.23692C6.18142 7.81976 6.6539 8.29224 7.23674 8.29224C7.81958 8.29224 8.29206 7.81976 8.29206 7.23692C8.29206 6.65408 7.81958 6.1816 7.23674 6.1816ZM4.14615 7.23692C4.14615 5.53004 5.52985 4.14633 7.23674 4.14633C8.94362 4.14633 10.3273 5.53004 10.3273 7.23692C10.3273 8.94381 8.94362 10.3275 7.23674 10.3275C5.52985 10.3275 4.14615 8.94381 4.14615 7.23692Z" fill="#0245A3"/>
</svg>
