<svg width="19" height="16" viewBox="0 0 19 16" fill="none" xmlns="http://www.w3.org/2000/svg">
<path d="M12.7373 0.198242C14.8547 0.198242 16.5969 1.93446 16.6162 4.06836V4.08594C16.6076 5.04116 16.2538 5.91741 15.6748 6.59375L15.5303 6.7627L15.7139 6.88672C17.1256 7.84401 18.0595 9.46005 18.0596 11.2939V12.5391H16.0752V11.2939C16.0751 9.45328 14.5649 7.95605 12.7373 7.95605H12.6113L12.5547 8.06152C12.4226 8.31026 12.2631 8.54523 12.0781 8.76172L11.9346 8.93066L12.1182 9.05469C12.394 9.2419 12.6534 9.45618 12.8926 9.69531C13.8907 10.6934 14.4512 12.0475 14.4512 13.459V15.4258H12.4668V13.459C12.4668 12.5738 12.1152 11.7246 11.4893 11.0986C10.8633 10.4728 10.0141 10.1211 9.12891 10.1211C8.24375 10.1211 7.39446 10.4727 6.76855 11.0986C6.14266 11.7246 5.79103 12.5738 5.79102 13.459V15.4258H3.80664V13.459C3.80666 12.0475 4.36716 10.6934 5.36523 9.69531C5.60443 9.45612 5.8647 9.24194 6.14062 9.05469L6.32422 8.93066L6.17969 8.76172C5.99479 8.54527 5.83518 8.3102 5.70312 8.06152L5.64746 7.95605H5.52051C3.69298 7.95618 2.18268 9.45336 2.18262 11.2939V12.5391H0.198242V11.2939C0.198278 9.46006 1.13225 7.84401 2.54395 6.88672L2.72754 6.7627L2.58301 6.59375C2.00403 5.91743 1.65025 5.04111 1.6416 4.08594V4.06836C1.66095 1.93454 3.40322 0.198366 5.52051 0.198242C6.99242 0.198242 8.27929 0.976803 8.95898 2.11523L9.12891 2.40039L9.2998 2.11523C9.97951 0.97692 11.2655 0.19827 12.7373 0.198242ZM9.12891 4.34766C8.62654 4.3477 8.14429 4.54809 7.78906 4.90332C7.43414 5.25849 7.23443 5.74006 7.23438 6.24219C7.23438 6.74452 7.43391 7.22679 7.78906 7.58203C8.14429 7.93726 8.62654 8.13668 9.12891 8.13672C9.63133 8.13672 10.1135 7.93729 10.4688 7.58203C10.824 7.22677 11.0234 6.74459 11.0234 6.24219C11.0234 5.73999 10.8238 5.2585 10.4688 4.90332C10.1135 4.54806 9.63133 4.34766 9.12891 4.34766ZM5.52051 2.18262C4.50731 2.18274 3.64305 3.02384 3.62695 4.07422H3.62598L3.62695 4.08008C3.64033 4.95843 4.24586 5.68778 5.0332 5.90527L5.25293 5.96582L5.2832 5.74023C5.39333 4.89709 5.77803 4.10791 6.38574 3.5C6.55146 3.33428 6.73086 3.1843 6.9209 3.05273L7.12012 2.91504L6.94629 2.74707C6.59781 2.41114 6.10027 2.18262 5.52051 2.18262ZM12.7373 2.18262C12.1577 2.18264 11.661 2.41124 11.3125 2.74707L11.1377 2.91504L11.3369 3.05273C11.527 3.1843 11.7064 3.33428 11.8721 3.5C12.4799 4.10793 12.8654 4.89702 12.9756 5.74023L13.0049 5.96582L13.2246 5.90527C14.012 5.68778 14.6185 4.95844 14.6318 4.08008V4.07422C14.6157 3.02375 13.7506 2.18262 12.7373 2.18262Z" fill="#0245A3" stroke="white" stroke-width="0.396916"/>
</svg>
