<svg width="20" height="15" viewBox="0 0 20 15" fill="none" xmlns="http://www.w3.org/2000/svg">
<path d="M10.9091 3.63636C10.9091 1.62727 9.28182 0 7.27273 0C5.26364 0 3.63636 1.62727 3.63636 3.63636C3.63636 5.64545 5.26364 7.27273 7.27273 7.27273C9.28182 7.27273 10.9091 5.64545 10.9091 3.63636ZM9.09091 3.63636C9.09091 4.63636 8.27273 5.45455 7.27273 5.45455C6.27273 5.45455 5.45455 4.63636 5.45455 3.63636C5.45455 2.63636 6.27273 1.81818 7.27273 1.81818C8.27273 1.81818 9.09091 2.63636 9.09091 3.63636ZM0 12.7273V14.5455H14.5455V12.7273C14.5455 10.3091 9.7 9.09091 7.27273 9.09091C4.84545 9.09091 0 10.3091 0 12.7273ZM1.81818 12.7273C2 12.0818 4.81818 10.9091 7.27273 10.9091C9.71818 10.9091 12.5273 12.0727 12.7273 12.7273H1.81818ZM17.2727 10V7.27273H20V5.45455H17.2727V2.72727H15.4545V5.45455H12.7273V7.27273H15.4545V10H17.2727Z" fill="#0245A3"/>
</svg>
