<svg width="20" height="20" viewBox="0 0 20 20" fill="none" xmlns="http://www.w3.org/2000/svg">
<path d="M18.0682 19.6591L11.7045 13.2955C11.1364 13.75 10.483 14.1098 9.74432 14.375C9.00568 14.6401 8.2197 14.7727 7.38636 14.7727C5.32197 14.7727 3.575 14.0576 2.14545 12.6273C0.715909 11.197 0.000757576 9.45 0 7.38636C0 5.32197 0.715152 3.575 2.14545 2.14545C3.57576 0.715909 5.32273 0.000757576 7.38636 0C9.45076 0 11.1977 0.715151 12.6273 2.14545C14.0568 3.57576 14.772 5.32273 14.7727 7.38636C14.7727 8.2197 14.6402 9.00568 14.375 9.74432C14.1098 10.483 13.75 11.1364 13.2955 11.7045L19.6875 18.0966C19.8958 18.3049 20 18.5606 20 18.8636C20 19.1667 19.8864 19.4318 19.6591 19.6591C19.4508 19.8674 19.1856 19.9716 18.8636 19.9716C18.5417 19.9716 18.2765 19.8674 18.0682 19.6591ZM7.38636 12.5C8.80682 12.5 10.0144 12.0027 11.0091 11.008C12.0038 10.0133 12.5008 8.80606 12.5 7.38636C12.5 5.96591 12.0027 4.75833 11.008 3.76364C10.0133 2.76894 8.80606 2.27197 7.38636 2.27273C5.96591 2.27273 4.75833 2.77008 3.76364 3.76477C2.76894 4.75947 2.27197 5.96667 2.27273 7.38636C2.27273 8.80682 2.77008 10.0144 3.76477 11.0091C4.75947 12.0038 5.96667 12.5008 7.38636 12.5Z" fill="#0245A3"/>
</svg>
