<svg width="20" height="20" viewBox="0 0 20 20" fill="none" xmlns="http://www.w3.org/2000/svg">
<path d="M10 14.4687C9.64583 14.4687 9.34875 14.3487 9.10875 14.1087C8.86875 13.8687 8.74917 13.5721 8.75 13.2187V4.28125L6.40625 6.625C6.15625 6.875 5.86458 7 5.53125 7C5.19792 7 4.89583 6.86458 4.625 6.59375C4.375 6.34375 4.25542 6.04708 4.26625 5.70375C4.27708 5.36041 4.39667 5.07375 4.625 4.84375L9.125 0.343749C9.25 0.218749 9.38542 0.130416 9.53125 0.0787496C9.67708 0.027083 9.83333 0.000833333 10 0C10.1667 0 10.3229 0.0262496 10.4687 0.0787496C10.6146 0.13125 10.75 0.219583 10.875 0.343749L15.375 4.84375C15.625 5.09375 15.745 5.39083 15.735 5.735C15.725 6.07916 15.605 6.36541 15.375 6.59375C15.125 6.84375 14.8279 6.97416 14.4837 6.985C14.1396 6.99583 13.8429 6.87583 13.5937 6.625L11.25 4.28125V13.2187C11.25 13.5729 11.13 13.87 10.89 14.11C10.65 14.35 10.3533 14.4696 10 14.4687ZM2.5 19.4687C1.8125 19.4687 1.22375 19.2237 0.733752 18.7337C0.243752 18.2437 -0.000831211 17.6554 2.12224e-06 16.9687V14.4687C2.12224e-06 14.1146 0.120002 13.8175 0.360002 13.5775C0.600002 13.3375 0.896668 13.2179 1.25 13.2187C1.60417 13.2187 1.90125 13.3387 2.14125 13.5787C2.38125 13.8187 2.50083 14.1154 2.5 14.4687V16.9687H17.5V14.4687C17.5 14.1146 17.62 13.8175 17.86 13.5775C18.1 13.3375 18.3967 13.2179 18.75 13.2187C19.1042 13.2187 19.4012 13.3387 19.6412 13.5787C19.8812 13.8187 20.0008 14.1154 20 14.4687V16.9687C20 17.6562 19.755 18.245 19.265 18.735C18.775 19.225 18.1867 19.4696 17.5 19.4687H2.5Z" fill="#0245A3"/>
</svg>
