<svg width="29" height="20" viewBox="0 0 29 20" fill="none" xmlns="http://www.w3.org/2000/svg">
<path d="M20.3284 6.00469C20.8809 5.96299 21.4543 5.99427 22.0485 6.09851C22.6427 6.20276 23.2213 6.37477 23.7842 6.61454C24.3471 6.85431 24.8892 7.14621 25.4105 7.49023C25.9317 7.83425 26.3852 8.2356 26.7709 8.69429C27.1566 9.15298 27.459 9.65338 27.6779 10.1955C27.8968 10.7376 28.0115 11.3161 28.0219 11.9312C28.0219 12.588 27.8864 13.1665 27.6153 13.6669C27.3443 14.1673 26.9794 14.5947 26.5207 14.9492C26.062 15.3036 25.546 15.559 24.9726 15.7154C24.3993 15.8718 23.8103 15.9604 23.2056 15.9812C22.7574 15.9812 22.3352 15.9447 21.939 15.8718C21.9599 16.0594 21.9755 16.2471 21.9859 16.4347C21.9964 16.6224 22.0068 16.81 22.0172 16.9977C22.0172 17.5293 21.9755 18.0349 21.8921 18.5145C21.8087 18.994 21.6888 19.4892 21.5324 20H4.48788C4.36278 19.4892 4.25332 18.994 4.1595 18.5145C4.06568 18.0349 4.01355 17.5293 4.00313 16.9977C4.00313 16.8309 4.00834 16.6641 4.01876 16.4973C4.02919 16.3305 4.04483 16.1637 4.06568 15.9969C3.50274 15.9969 2.97628 15.8978 2.48632 15.6998C1.99635 15.5017 1.56893 15.2202 1.20407 14.8554C0.839197 14.4905 0.547303 14.0631 0.328382 13.5731C0.109461 13.0831 0 12.5567 0 11.9937C0 11.4412 0.104248 10.9252 0.312744 10.4457C0.521241 9.96612 0.807923 9.5387 1.17279 9.16341C1.53766 8.78812 1.95986 8.50143 2.43941 8.30336C2.91895 8.10529 3.44019 8.00104 4.00313 7.99062C4.72244 7.99062 5.3792 8.16263 5.97342 8.50665C6.56763 8.85067 7.0576 9.33542 7.44332 9.96091C8.32942 9.2416 9.24681 8.73599 10.1955 8.4441C11.1441 8.1522 12.1866 8.00104 13.3229 7.99062C12.8851 7.45895 12.5567 6.88038 12.3378 6.25489C12.1188 5.6294 12.0094 4.97264 12.0094 4.2846C12.0094 3.84676 12.0667 3.44019 12.1814 3.06489C12.2961 2.6896 12.4472 2.32995 12.6349 1.98593C12.8225 1.64191 13.031 1.30831 13.2604 0.985145C13.4897 0.661976 13.7295 0.333594 13.9797 0L20.3284 6.00469ZM2.00156 11.9937C2.00156 12.2752 2.05369 12.5358 2.15794 12.7756C2.26218 13.0154 2.40292 13.2239 2.58014 13.4011C2.75736 13.5783 2.97107 13.7243 3.22127 13.8389C3.47146 13.9536 3.73208 14.0057 4.00313 13.9953C4.21162 13.9953 4.4097 13.964 4.59734 13.9015C4.92051 13.0154 5.36357 12.2127 5.92651 11.4934C5.81183 11.0659 5.57727 10.7115 5.22283 10.43C4.86839 10.1486 4.46182 10.0026 4.00313 9.99218C3.72166 9.99218 3.46104 10.0443 3.22127 10.1486C2.9815 10.2528 2.773 10.3935 2.59578 10.5708C2.41856 10.748 2.27261 10.9617 2.15794 11.2119C2.04326 11.4621 1.99114 11.7227 2.00156 11.9937ZM19.9375 17.9984C19.9687 17.8316 19.9896 17.6648 20 17.498C20.0104 17.3312 20.0156 17.1645 20.0156 16.9977C20.0156 16.6849 19.9896 16.3774 19.9375 16.0751C19.8853 15.7727 19.8176 15.4704 19.7342 15.1681C19.2963 14.9492 18.8793 14.6886 18.4832 14.3862C18.087 14.0839 17.7222 13.7451 17.3886 13.3698C17.055 12.9945 16.7787 12.588 16.5598 12.1501C16.3409 11.7123 16.1897 11.2432 16.1063 10.7428C15.6268 10.503 15.1264 10.3206 14.6052 10.1955C14.0839 10.0704 13.5523 10.0026 13.0102 9.99218C12.0615 9.99218 11.165 10.1798 10.3206 10.5551C9.47615 10.9304 8.73599 11.436 8.10008 12.0719C7.46416 12.7078 6.95335 13.4532 6.56763 14.3081C6.18191 15.1629 5.99427 16.0594 6.00469 16.9977C6.00469 17.1645 6.0099 17.3312 6.02033 17.498C6.03075 17.6648 6.0516 17.8316 6.08288 17.9984H9.83581C9.95048 17.6023 10.0078 17.2114 10.0078 16.8256C10.0078 16.2314 9.88272 15.6685 9.63253 15.1368C9.38233 14.6052 9.02789 14.1413 8.56919 13.7451L9.85145 12.2127C10.5395 12.786 11.0659 13.4636 11.4308 14.2455C11.7957 15.0274 11.9833 15.877 11.9937 16.7944C11.9937 17.0029 11.9885 17.2062 11.9781 17.4042C11.9677 17.6023 11.9364 17.8004 11.8843 17.9984H19.9375ZM23.2213 13.9797C23.534 13.9797 23.8572 13.9432 24.1908 13.8702C24.5244 13.7972 24.8267 13.6774 25.0977 13.5106C25.3688 13.3438 25.5877 13.13 25.7545 12.8694C25.9213 12.6088 26.0099 12.2909 26.0203 11.9156C26.0203 11.3422 25.8483 10.8157 25.5043 10.3362C25.1603 9.85666 24.7329 9.44488 24.222 9.10086C23.7112 8.75684 23.1535 8.4858 22.5489 8.28773C21.9442 8.08965 21.3865 7.99062 20.8757 7.99062C20.6672 7.99062 20.4639 8.00626 20.2658 8.03753C20.0678 8.0688 19.8645 8.10008 19.656 8.13135L14.3081 3.08053C14.2142 3.29945 14.1413 3.49231 14.0891 3.65911C14.037 3.82591 14.0109 4.0344 14.0109 4.2846C14.0109 4.68074 14.0683 5.06125 14.183 5.42611C14.2976 5.79098 14.4592 6.12979 14.6677 6.44253C14.8762 6.75528 15.1264 7.03154 15.4183 7.27131C15.7102 7.51108 16.0386 7.71436 16.4034 7.88116C16.737 8.0271 17.0863 8.12093 17.4511 8.16263C17.816 8.20433 18.1809 8.25124 18.5457 8.30336C18.4519 8.56398 18.3477 8.83503 18.233 9.1165C18.1183 9.39797 18.061 9.68465 18.061 9.97654C18.061 10.5916 18.2278 11.1441 18.5614 11.6341C18.895 12.1241 19.3172 12.541 19.828 12.8851C20.3388 13.2291 20.8965 13.5001 21.5012 13.6982C22.1058 13.8963 22.6792 13.9901 23.2213 13.9797Z" fill="#0245A3"/>
</svg>
